<svg xmlns="http://www.w3.org/2000/svg" width="1502.6563720703125" height="263.97650146484375" viewBox="-625.7230834960938 -89.89371490478516 1502.6563720703125 263.97650146484375"><title>Neo4j Graph Visualization</title><desc>Created using Neo4j (http://www.neo4j.com/)</desc><g class="layer relationships"><g class="relationship" transform="translate(-596.7231012600093 96.37435174072607) rotate(362.0173916199079)"><path class="outline" fill="#A5ABB6" stroke="none" d="M 17.324116139070416,-18.03122292025696 L 18.031222920256962,-17.324116139070412 A 109.45976294044172 109.45976294044172 0 0 1 60.44840571261638,-43.64351716919667 L 60.128812860319286,-44.59107213264767 A 110.45976294044172 110.45976294044172 0 0 0 17.324116139070416,-18.03122292025696 Z M 125.4559922249406,-46.225160454775235 L 125.18417352948845,-45.26281197485609 A 109.45976294044172 109.45976294044172 0 0 1 168.8641880348389,-21.09703866967474 L 166.85157931452912,-18.87231258789902 L 174.39065034570052,-16.77173933591461 L 171.54766632858522,-24.063340112042365 L 169.53505760827545,-21.838614030266648 A 110.45976294044172 110.45976294044172 0 0 0 125.4559922249406,-46.225160454775235"/><text text-anchor="middle" pointer-events="none" font-size="8px" fill="#000000" x="92.68129981020058" y="-46.84975389128182" font-family="sans-serif">Send 16088 myt</text></g><g class="relationship" transform="translate(-403.91264733686756 103.16603903439926) rotate(362.22124721380044)"><path class="outline" fill="#A5ABB6" stroke="none" d="M 24.018736134675446,-6.953439040707552 L 24.277555179777966,-5.987513214418485 A 232.92894980294471 232.92894980294471 0 0 1 51.68808204316886,-11.592626630765096 L 51.54694062846213,-12.582616075685877 A 233.92894980294471 233.92894980294471 0 0 0 24.018736134675446,-6.953439040707552 Z M 112.86614258101423,-13.20598126257346 L 112.74515653349704,-12.213327054751716 A 232.92894980294471 232.92894980294471 0 0 1 140.26396879189403,-7.166620086254166 L 139.5465831003193,-4.253656342998186 L 147.18044847475377,-5.978214096455854 L 141.22048304732698,-11.050571743928804 L 140.50309735575226,-8.137608000672826 A 233.92894980294471 233.92894980294471 0 0 0 112.86614258101423,-13.20598126257346"/><text text-anchor="middle" pointer-events="none" font-size="8px" fill="#000000" x="82.19110960784876" y="-11.412313716646196" font-family="sans-serif">Send 5793 vcc</text></g><g class="relationship" transform="translate(-232.5863303061312 109.8113605100994) rotate(348.501357191878)"><path class="outline" fill="#A5ABB6" stroke="none" d="M 24.018736134675446,-6.953439040707552 L 24.277555179777966,-5.987513214418485 A 300.3806733772745 300.3806733772745 0 0 1 63.89039322103695,-13.792638169824897 L 63.76344963115557,-14.784548107766852 A 301.3806733772745 301.3806733772745 0 0 0 24.018736134675446,-6.953439040707552 Z M 135.1833111518877,-15.392766770607238 L 135.07327915630634,-14.39883872494778 A 300.3806733772745 300.3806733772745 0 0 1 174.81330065931778,-7.26949063464445 L 174.08630808409285,-4.358909628115372 L 181.72582177042312,-6.058271460207786 L 175.782624092951,-11.150265310016554 L 175.05563151772608,-8.239684303487476 A 301.3806733772745 301.3806733772745 0 0 0 135.1833111518877,-15.392766770607238"/><text text-anchor="middle" pointer-events="none" font-size="8px" fill="#000000" x="99.45955732173167" y="-13.711826523773311" font-family="sans-serif">withdraw 0.15 eth</text></g><g class="relationship" transform="translate(-30.73981678517066 68.75020232099364) rotate(382.63316854074407)"><path class="outline" fill="#A5ABB6" stroke="none" d="M 25 0.5 L 30.473226571204293 0.5 L 30.473226571204293 -0.5 L 25 -0.5 Z M 160.88095667374336 0.5 L 166.35418324494765 0.5 L 166.35418324494765 3.5 L 173.35418324494765 0 L 166.35418324494765 -3.5 L 166.35418324494765 -0.5 L 160.88095667374336 -0.5 Z"/><text text-anchor="middle" pointer-events="none" font-size="8px" fill="#000000" x="95.67709162247382" y="3" font-family="sans-serif">eth_wedexDepositToken 4016 jcc</text></g><g class="relationship" transform="translate(152.33863352302924 145.08278411617627) rotate(327.4954327700197)"><path class="outline" fill="#A5ABB6" stroke="none" d="M 25 0.5 L 36.38542005525679 0.5 L 36.38542005525679 -0.5 L 25 -0.5 Z M 96.79330274568647 0.5 L 108.17872280094326 0.5 L 108.17872280094326 3.5 L 115.17872280094326 0 L 108.17872280094326 -3.5 L 108.17872280094326 -0.5 L 96.79330274568647 -0.5 Z"/><text text-anchor="middle" pointer-events="none" font-size="8px" fill="#000000" x="66.58936140047163" y="3" font-family="sans-serif">Send 1000 cny</text></g><g class="relationship" transform="translate(270.5581650060145 69.75538736010125) rotate(358.2505677688489)"><path class="outline" fill="#A5ABB6" stroke="none" d="M 25 0.5 L 42.919948970863516 0.5 L 42.919948970863516 -0.5 L 25 -0.5 Z M 104.91982690055102 0.5 L 122.83977587141453 0.5 L 122.83977587141453 3.5 L 129.83977587141453 0 L 122.83977587141453 -3.5 L 122.83977587141453 -0.5 L 104.91982690055102 -0.5 Z"/><text text-anchor="middle" pointer-events="none" font-size="8px" fill="#000000" x="73.91988793570727" y="3" font-family="sans-serif">Send 2350 cny</text></g><g class="relationship" transform="translate(425.32576903704813 65.02834447865074) rotate(359.93268053797874)"><path class="outline" fill="#A5ABB6" stroke="none" d="M 21.40063509461097,-12.933012701892217 L 21.90063509461097,-12.06698729810778 A 116.83290081242023 116.83290081242023 0 0 1 48.24186919124559,-23.230428448457857 L 47.96732994685009,-24.19200434420752 A 117.83290081242023 117.83290081242023 0 0 0 21.40063509461097,-12.933012701892217 Z M 107.95200615345242,-25.433240344844293 L 107.71747979908027,-24.46113058298357 A 116.83290081242023 116.83290081242023 0 0 1 134.4979683083954,-14.396913412558632 L 133.10672793609913,-11.739010060949893 L 140.93161619086516,-11.593669769135492 L 136.35295547145708,-17.94078454803695 L 134.9617150991608,-15.282881196428214 A 117.83290081242023 117.83290081242023 0 0 0 107.95200615345242,-25.433240344844293"/><text text-anchor="middle" pointer-events="none" font-size="8px" fill="#000000" x="77.88968803798333" y="-25.19451617347829" font-family="sans-serif">Send 1000 cny</text></g><g class="relationship" transform="translate(588.4064672582405 64.83673333354486) rotate(359.92297503395673)"><path class="outline" fill="#A5ABB6" stroke="none" d="M 24.018736134675446,-6.953439040707552 L 24.277555179777966,-5.987513214418485 A 180.55991650659354 180.55991650659354 0 0 1 40.634996699049786,-9.566679754316084 L 40.46677052658339,-10.552428178051713 A 181.55991650659354 181.55991650659354 0 0 0 24.018736134675446,-6.953439040707552 Z M 97.26543264194736,-11.231495646642571 L 97.12082180056052,-10.24200703905106 A 180.55991650659354 180.55991650659354 0 0 1 113.55915838147284,-7.054936812438523 L 112.85220316930457,-4.139424108300856 L 120.47984722648877,-5.891293434735525 L 114.50176533103053,-10.942287084622079 L 113.79481011886226,-8.026774380484412 A 181.55991650659354 181.55991650659354 0 0 0 97.26543264194736,-11.231495646642571"/><text text-anchor="middle" pointer-events="none" font-size="8px" fill="#000000" x="68.84535794664237" y="-9.627004332856728" font-family="sans-serif">Send 95 swtc</text></g><g class="relationship" transform="translate(733.182122863017 64.64210561804175) rotate(268.33144432437877)"><path class="outline" fill="#A5ABB6" stroke="none" d="M 25 0.5 L 28.29459723401464 0.5 L 28.29459723401464 -0.5 L 25 -0.5 Z M 90.29447516370215 0.5 L 93.58907239771678 0.5 L 93.58907239771678 3.5 L 100.58907239771678 0 L 93.58907239771678 -3.5 L 93.58907239771678 -0.5 L 90.29447516370215 -0.5 Z"/><text text-anchor="middle" pointer-events="none" font-size="8px" fill="#000000" x="59.29453619885839" y="3" transform="rotate(180 59.29453619885839 0)" font-family="sans-serif">Send 5000 cny</text></g><g class="relationship" transform="translate(729.5252611691766 -60.893715836517856) rotate(406.3829353019013)"><path class="outline" fill="#A5ABB6" stroke="none" d="M 25 0.5 L 49.71948273665082 0.5 L 49.71948273665082 -0.5 L 25 -0.5 Z M 114.92735322004926 0.5 L 139.64683595670007 0.5 L 139.64683595670007 3.5 L 146.64683595670007 0 L 139.64683595670007 -3.5 L 139.64683595670007 -0.5 L 114.92735322004926 -0.5 Z"/><text text-anchor="middle" pointer-events="none" font-size="8px" fill="#000000" x="82.32341797835004" y="3" font-family="sans-serif">Send 10000 cny</text></g><g class="relationship" transform="translate(-30.73981678517066 68.75020232099364) rotate(337.36532826083317)"><path class="outline" fill="#A5ABB6" stroke="none" d="M 25 0.5 L 26.59579242891681 0.5 L 26.59579242891681 -0.5 L 25 -0.5 Z M 163.39550556368243 0.5 L 164.99129799259924 0.5 L 164.99129799259924 3.5 L 171.99129799259924 0 L 164.99129799259924 -3.5 L 164.99129799259924 -0.5 L 163.39550556368243 -0.5 Z"/><text text-anchor="middle" pointer-events="none" font-size="8px" fill="#000000" x="94.99564899629962" y="3" font-family="sans-serif">eth_wedexDepositToken 30000 jcc</text></g><g class="relationship" transform="translate(151.07871839746616 -7.062670918643505) rotate(392.7385659099568)"><path class="outline" fill="#A5ABB6" stroke="none" d="M 25 0.5 L 39.71779612251957 0.5 L 39.71779612251957 -0.5 L 25 -0.5 Z M 95.32569101998051 0.5 L 110.04348714250008 0.5 L 110.04348714250008 3.5 L 117.04348714250008 0 L 110.04348714250008 -3.5 L 110.04348714250008 -0.5 L 95.32569101998051 -0.5 Z"/><text text-anchor="middle" pointer-events="none" font-size="8px" fill="#000000" x="67.52174357125004" y="3" font-family="sans-serif">Send 100 cny</text></g><g class="relationship" transform="translate(-232.5863303061312 109.8113605100994) rotate(348.501357191878)"><path class="outline" fill="#A5ABB6" stroke="none" d="M 24.018736134675446,6.953439040707552 L 24.277555179777966,5.987513214418485 A 300.3806733772745 300.3806733772745 0 0 0 58.22940135139206,13.013352516280179 L 58.08361170258819,14.00266812734759 A 301.3806733772745 301.3806733772745 0 0 1 24.018736134675446,6.953439040707552 Z M 140.87564146161122,14.707733308960371 L 140.74672195660224,13.71607824734457 A 300.3806733772745 300.3806733772745 0 0 0 174.81330065931778,7.26949063464445 L 174.08630808409285,4.358909628115372 L 181.72582177042312,6.058271460207786 L 175.782624092951,11.150265310016554 L 175.05563151772608,8.239684303487476 A 301.3806733772745 301.3806733772745 0 0 1 140.87564146161122,14.707733308960371"/><text text-anchor="middle" pointer-events="none" font-size="8px" fill="#000000" x="99.45955732173167" y="19.71182652377331" font-family="sans-serif">withdraw 132362 jcc</text></g><g class="relationship" transform="translate(-403.91264733686756 103.16603903439926) rotate(362.22124721380044)"><path class="outline" fill="#A5ABB6" stroke="none" d="M 24.018736134675446,6.953439040707552 L 24.277555179777966,5.987513214418485 A 232.92894980294471 232.92894980294471 0 0 0 52.32043277497868,11.68189568806639 L 52.18200613974589,12.672268378854142 A 233.92894980294471 233.92894980294471 0 0 1 24.018736134675446,6.953439040707552 Z M 112.22938571340144,13.282704340153884 L 112.11112167557202,12.289722156347807 A 232.92894980294471 232.92894980294471 0 0 0 140.26396879189403,7.166620086254166 L 139.5465831003193,4.253656342998186 L 147.18044847475377,5.978214096455854 L 141.22048304732698,11.050571743928804 L 140.50309735575226,8.137608000672826 A 233.92894980294471 233.92894980294471 0 0 1 112.22938571340144,13.282704340153884"/><text text-anchor="middle" pointer-events="none" font-size="8px" fill="#000000" x="82.19110960784876" y="17.412313716646196" font-family="sans-serif">Send 100 swtc</text></g><g class="relationship" transform="translate(-596.7231012600093 96.37435174072607) rotate(362.0173916199079)"><path class="outline" fill="#A5ABB6" stroke="none" d="M 24.018736134675446,-6.953439040707552 L 24.277555179777966,-5.987513214418485 A 274.9156591415161 274.9156591415161 0 0 1 62.38865868285314,-13.362124814095239 L 62.26846798515755,-14.354875636904012 A 275.9156591415161 275.9156591415161 0 0 0 24.018736134675446,-6.953439040707552 Z M 123.61812463998947,-14.911480241706329 L 123.51596602686409,-13.916712119094711 A 274.9156591415161 274.9156591415161 0 0 1 161.7545996354901,-7.234795761233507 L 161.0308470895629,-4.323407389294115 L 168.66846459433654,-6.031271216059956 L 162.7196030300597,-11.116646923819363 L 161.9958504841325,-8.205258551879972 A 275.9156591415161 275.9156591415161 0 0 0 123.61812463998947,-14.911480241706329"/><text text-anchor="middle" pointer-events="none" font-size="8px" fill="#000000" x="92.93231363268391" y="-12.843702671877168" font-family="sans-serif">Send 5793 vcc</text></g><g class="relationship" transform="translate(-596.7231012600093 96.37435174072607) rotate(362.0173916199079)"><path class="outline" fill="#A5ABB6" stroke="none" d="M 24.018736134675446,6.953439040707552 L 24.277555179777966,5.987513214418485 A 274.9156591415161 274.9156591415161 0 0 0 62.23407021253592,13.343364618410249 L 62.11331720249043,14.336047201396866 A 275.9156591415161 275.9156591415161 0 0 1 24.018736134675446,6.953439040707552 Z M 123.77359150273954,14.895469934632104 L 123.67086943169649,13.900759838111242 A 274.9156591415161 274.9156591415161 0 0 0 161.7545996354901,7.234795761233507 L 161.0308470895629,4.323407389294115 L 168.66846459433654,6.031271216059956 L 162.7196030300597,11.116646923819363 L 161.9958504841325,8.205258551879972 A 275.9156591415161 275.9156591415161 0 0 1 123.77359150273954,14.895469934632104"/><text text-anchor="middle" pointer-events="none" font-size="8px" fill="#000000" x="92.93231363268406" y="18.843702671877168" font-family="sans-serif">Send 200 swtc</text></g><g class="relationship" transform="translate(-596.7231012600093 96.37435174072607) rotate(315.8775960616245)"><path class="outline" fill="#A5ABB6" stroke="none" d="M 25 0.5 L 58.69517877869069 0.5 L 58.69517877869069 -0.5 L 25 -0.5 Z M 134.35103205017506 0.5 L 168.04621082886575 0.5 L 168.04621082886575 3.5 L 175.04621082886575 0 L 168.04621082886575 -3.5 L 168.04621082886575 -0.5 L 134.35103205017506 -0.5 Z"/><text text-anchor="middle" pointer-events="none" font-size="8px" fill="#000000" x="96.52310541443288" y="3" font-family="sans-serif">Send 870000 swtc</text></g><g class="relationship" transform="translate(-453.1191035628172 -42.896529323378076) rotate(363.99622932947625)"><path class="outline" fill="#A5ABB6" stroke="none" d="M 25 0.5 L 72.93660548087821 0.5 L 72.93660548087821 -0.5 L 25 -0.5 Z M 157.336462048261 0.5 L 205.27306752913924 0.5 L 205.27306752913924 3.5 L 212.27306752913924 0 L 205.27306752913924 -3.5 L 205.27306752913924 -0.5 L 157.336462048261 -0.5 Z"/><text text-anchor="middle" pointer-events="none" font-size="8px" fill="#000000" x="115.13653376456962" y="3" font-family="sans-serif">withdraw 8000 moac</text></g><g class="relationship" transform="translate(-216.4229325600627 -26.360773903008806) rotate(387.1225231705531)"><path class="outline" fill="#A5ABB6" stroke="none" d="M 25 0.5 L 55.148486940693914 0.5 L 55.148486940693914 -0.5 L 25 -0.5 Z M 146.4763372824908 0.5 L 176.6248242231847 0.5 L 176.6248242231847 3.5 L 183.6248242231847 0 L 176.6248242231847 -3.5 L 176.6248242231847 -0.5 L 146.4763372824908 -0.5 Z"/><text text-anchor="middle" pointer-events="none" font-size="8px" fill="#000000" x="100.81241211159235" y="3" font-family="sans-serif">moac_send 4621 moac</text></g><g class="relationship" transform="translate(-403.91264733686756 103.16603903439926) rotate(182.01739161990793)"><path class="outline" fill="#A5ABB6" stroke="none" d="M 17.324116139070416,-18.03122292025696 L 18.031222920256962,-17.324116139070412 A 109.45976294044172 109.45976294044172 0 0 1 60.24096052646026,-43.573318517472686 L 59.91947250117373,-44.52023216168601 A 110.45976294044172 110.45976294044172 0 0 0 17.324116139070416,-18.03122292025696 Z M 125.66861253468164,-46.16487537089323 L 125.3948689726167,-45.20307265607693 A 109.45976294044172 109.45976294044172 0 0 1 168.8641880348389,-21.09703866967474 L 166.85157931452912,-18.87231258789902 L 174.39065034570052,-16.77173933591461 L 171.54766632858522,-24.063340112042365 L 169.53505760827545,-21.838614030266648 A 110.45976294044172 110.45976294044172 0 0 0 125.66861253468164,-46.16487537089323"/><text text-anchor="middle" pointer-events="none" font-size="8px" fill="#000000" x="92.68129981020058" y="-46.84975389128182" transform="rotate(180 92.68129981020058 -49.84975389128182)" font-family="sans-serif">Send 5000 swtc</text></g><g class="relationship" transform="translate(588.4064672582405 64.83673333354486) rotate(539.9326805379787)"><path class="outline" fill="#A5ABB6" stroke="none" d="M 25 0.5 L 49.81245434399767 0.5 L 49.81245434399767 -0.5 L 25 -0.5 Z M 106.26835644360705 0.5 L 131.08081078760472 0.5 L 131.08081078760472 3.5 L 138.08081078760472 0 L 131.08081078760472 -3.5 L 131.08081078760472 -0.5 L 106.26835644360705 -0.5 Z"/><text text-anchor="middle" pointer-events="none" font-size="8px" fill="#000000" x="78.04040539380236" y="3" transform="rotate(180 78.04040539380236 0)" font-family="sans-serif">Send 87 swtc</text></g><g class="relationship" transform="translate(588.4064672582405 64.83673333354486) rotate(539.9326805379787)"><path class="outline" fill="#A5ABB6" stroke="none" d="M 21.40063509461097,-12.933012701892217 L 21.90063509461097,-12.06698729810778 A 116.83290081242023 116.83290081242023 0 0 1 49.78061000537993,-23.658400841133513 L 49.51924120187424,-24.62363985223594 A 117.83290081242023 117.83290081242023 0 0 0 21.40063509461097,-12.933012701892217 Z M 106.38356769508816,-25.800307855781355 L 106.16235204127206,-24.82508294095058 A 116.83290081242023 116.83290081242023 0 0 1 134.4979683083954,-14.396913412558632 L 133.10672793609913,-11.739010060949893 L 140.93161619086516,-11.593669769135492 L 136.35295547145708,-17.94078454803695 L 134.9617150991608,-15.282881196428214 A 117.83290081242023 117.83290081242023 0 0 0 106.38356769508816,-25.800307855781355"/><text text-anchor="middle" pointer-events="none" font-size="8px" fill="#000000" x="77.88968803798333" y="-25.19451617347829" transform="rotate(180 77.88968803798333 -28.19451617347829)" font-family="sans-serif">Send 600 cny</text></g><g class="relationship" transform="translate(733.182122863017 64.64210561804175) rotate(539.9229750339567)"><path class="outline" fill="#A5ABB6" stroke="none" d="M 24.018736134675446,-6.953439040707552 L 24.277555179777966,-5.987513214418485 A 180.55991650659354 180.55991650659354 0 0 1 38.121579265826476,-9.119435771776807 L 37.939432963788406,-10.102707211743336 A 181.55991650659354 181.55991650659354 0 0 0 24.018736134675446,-6.953439040707552 Z M 99.8027997159859,-10.842326743161095 L 99.64421350424827,-9.854981609255702 A 180.55991650659354 180.55991650659354 0 0 1 113.55915838147284,-7.054936812438523 L 112.85220316930457,-4.139424108300856 L 120.47984722648877,-5.891293434735525 L 114.50176533103053,-10.942287084622079 L 113.79481011886226,-8.026774380484412 A 181.55991650659354 181.55991650659354 0 0 0 99.8027997159859,-10.842326743161095"/><text text-anchor="middle" pointer-events="none" font-size="8px" fill="#000000" x="68.84535794664237" y="-9.627004332856728" transform="rotate(180 68.84535794664237 -12.627004332856728)" font-family="sans-serif">Send 5000 cny</text></g><g class="relationship" transform="translate(729.5252611691766 -60.893715836517856) rotate(498.3004096387864)"><path class="outline" fill="#A5ABB6" stroke="none" d="M 25 0.5 L 60.00225656968205 0.5 L 60.00225656968205 -0.5 L 25 -0.5 Z M 122.00213449936955 0.5 L 157.0043910690516 0.5 L 157.0043910690516 3.5 L 164.0043910690516 0 L 157.0043910690516 -3.5 L 157.0043910690516 -0.5 L 122.00213449936955 -0.5 Z"/><text text-anchor="middle" pointer-events="none" font-size="8px" fill="#000000" x="91.0021955345258" y="3" transform="rotate(180 91.0021955345258 0)" font-family="sans-serif">Send 5000 cny</text></g></g><g class="layer nodes"><g class="node" transform="translate(-596.7231012600093,96.37435174072607)"><circle class="outline" cx="0" cy="0" r="25" fill="#FFC454" stroke="#d7a013" stroke-width="2px"/><text text-anchor="middle" pointer-events="none" font-family="sans-serif" dy="1.5625" font-size="25" fill="#604A0E"/><text text-anchor="middle" pointer-events="none" y="5" font-size="10px" fill="#604A0E" font-family="sans-serif"> jUCtRo…</text></g><g class="node" transform="translate(-403.91264733686756,103.16603903439926)"><circle class="outline" cx="0" cy="0" r="25" fill="#FFC454" stroke="#d7a013" stroke-width="2px"/><text text-anchor="middle" pointer-events="none" font-family="sans-serif" dy="1.5625" font-size="25" fill="#604A0E"/><text text-anchor="middle" pointer-events="none" y="5" font-size="10px" fill="#604A0E" font-family="sans-serif"> jfx9PTB…</text></g><g class="node" transform="translate(-232.5863303061312,109.8113605100994)"><circle class="outline" cx="0" cy="0" r="25" fill="#FFC454" stroke="#d7a013" stroke-width="2px"/><text text-anchor="middle" pointer-events="none" font-family="sans-serif" dy="1.5625" font-size="25" fill="#604A0E"/><text text-anchor="middle" pointer-events="none" y="5" font-size="10px" fill="#604A0E" font-family="sans-serif"> jscHW6…</text></g><g class="node" transform="translate(-30.73981678517066,68.75020232099364)"><circle class="outline" cx="0" cy="0" r="25" fill="#FFC454" stroke="#d7a013" stroke-width="2px"/><text text-anchor="middle" pointer-events="none" font-family="sans-serif" dy="1.5625" font-size="25" fill="#604A0E"/><text text-anchor="middle" pointer-events="none" y="5" font-size="10px" fill="#604A0E" font-family="sans-serif"> 0x9de7…</text></g><g class="node" transform="translate(152.33863352302924,145.08278411617627)"><circle class="outline" cx="0" cy="0" r="25" fill="#FFC454" stroke="#d7a013" stroke-width="2px"/><text text-anchor="middle" pointer-events="none" font-family="sans-serif" dy="1.5625" font-size="25" fill="#604A0E"/><text text-anchor="middle" pointer-events="none" y="5" font-size="10px" fill="#604A0E" font-family="sans-serif"> jnEZkXf…</text></g><g class="node" transform="translate(270.5581650060145,69.75538736010125)"><circle class="outline" cx="0" cy="0" r="25" fill="#FFC454" stroke="#d7a013" stroke-width="2px"/><text text-anchor="middle" pointer-events="none" font-family="sans-serif" dy="1.5625" font-size="25" fill="#604A0E"/><text text-anchor="middle" pointer-events="none" y="5" font-size="10px" fill="#604A0E" font-family="sans-serif"> jMTEjaP…</text></g><g class="node" transform="translate(425.32576903704813,65.02834447865074)"><circle class="outline" cx="0" cy="0" r="25" fill="#FFC454" stroke="#d7a013" stroke-width="2px"/><text text-anchor="middle" pointer-events="none" font-family="sans-serif" dy="1.5625" font-size="25" fill="#604A0E"/><text text-anchor="middle" pointer-events="none" y="5" font-size="10px" fill="#604A0E" font-family="sans-serif"> jU5sT3…</text></g><g class="node" transform="translate(588.4064672582405,64.83673333354486)"><circle class="outline" cx="0" cy="0" r="25" fill="#FFC454" stroke="#d7a013" stroke-width="2px"/><text text-anchor="middle" pointer-events="none" font-family="sans-serif" dy="1.5625" font-size="25" fill="#604A0E"/><text text-anchor="middle" pointer-events="none" y="5" font-size="10px" fill="#604A0E" font-family="sans-serif"> jGn2EV…</text></g><g class="node" transform="translate(733.182122863017,64.64210561804175)"><circle class="outline" cx="0" cy="0" r="25" fill="#FFC454" stroke="#d7a013" stroke-width="2px"/><text text-anchor="middle" pointer-events="none" font-family="sans-serif" dy="1.5625" font-size="25" fill="#604A0E"/><text text-anchor="middle" pointer-events="none" y="5" font-size="10px" fill="#604A0E" font-family="sans-serif"> jJrJzBs…</text></g><g class="node" transform="translate(729.5252611691766,-60.893715836517856)"><circle class="outline" cx="0" cy="0" r="25" fill="#FFC454" stroke="#d7a013" stroke-width="2px"/><text text-anchor="middle" pointer-events="none" font-family="sans-serif" dy="1.5625" font-size="25" fill="#604A0E"/><text text-anchor="middle" pointer-events="none" y="5" font-size="10px" fill="#604A0E" font-family="sans-serif"> j3DdCG…</text></g><g class="node" transform="translate(847.9332900647019,63.37283230505868)"><circle class="outline" cx="0" cy="0" r="25" fill="#FFC454" stroke="#d7a013" stroke-width="2px"/><text text-anchor="middle" pointer-events="none" font-family="sans-serif" dy="1.5625" font-size="25" fill="#604A0E"/><text text-anchor="middle" pointer-events="none" y="5" font-size="10px" fill="#604A0E" font-family="sans-serif"> jsLy3Yd…</text></g><g class="node" transform="translate(151.07871839746616,-7.062670918643505)"><circle class="outline" cx="0" cy="0" r="25" fill="#FFC454" stroke="#d7a013" stroke-width="2px"/><text text-anchor="middle" pointer-events="none" font-family="sans-serif" dy="1.5625" font-size="25" fill="#604A0E"/><text text-anchor="middle" pointer-events="none" y="5" font-size="10px" fill="#604A0E" font-family="sans-serif"> jKby8iZ…</text></g><g class="node" transform="translate(-453.1191035628172,-42.896529323378076)"><circle class="outline" cx="0" cy="0" r="25" fill="#FFC454" stroke="#d7a013" stroke-width="2px"/><text text-anchor="middle" pointer-events="none" font-family="sans-serif" dy="1.5625" font-size="25" fill="#604A0E"/><text text-anchor="middle" pointer-events="none" y="5" font-size="10px" fill="#604A0E" font-family="sans-serif"> jwcpJN…</text></g><g class="node" transform="translate(-216.4229325600627,-26.360773903008806)"><circle class="outline" cx="0" cy="0" r="25" fill="#FFC454" stroke="#d7a013" stroke-width="2px"/><text text-anchor="middle" pointer-events="none" font-family="sans-serif" dy="1.5625" font-size="25" fill="#604A0E"/><text text-anchor="middle" pointer-events="none" y="5" font-size="10px" fill="#604A0E" font-family="sans-serif"> 0x428c…</text></g></g></svg>